PathFileType	4	(X/Y/Z)	/Users/itak/Documents/Research/Walk-IL/dataset/trc/00189_00008.trc
DataRate	CameraRate	NumFrames	NumMarkers	Units	OrigDataRate	OrigDataStartFrame	OrigNumFrames
100.000000	100.000000	4	53	mm	100.000000	0	821
Frame#	Time	RPSI			LPSI			L3			STRN			T10			C7			CLAV			RBAK			LBAK			LSHO			LUPA			LAEL			LAOL			LWTS			LWPS			LFRA			LIFD			LHPS			LHTS			RSHO			RUPA			RAEL			RAOL			RWTS			RWPS			RFRA			RIFD			RHTS			RHPS			RBHD			LFHD			RFHD			LBHD			LHIP			RHIP			RASI			LASI			LKNE			LTHI			LANK			LTIP			LTOE			LMT1			LMT5			LHEE			RKNE			RTHI			RANK			RTIP			RTOE			RMT1			RMT5			RHEE			
		X1	Y1	Z1	X2	Y2	Z2	X3	Y3	Z3	X4	Y4	Z4	X5	Y5	Z5	X6	Y6	Z6	X7	Y7	Z7	X8	Y8	Z8	X9	Y9	Z9	X10	Y10	Z10	X11	Y11	Z11	X12	Y12	Z12	X13	Y13	Z13	X14	Y14	Z14	X15	Y15	Z15	X16	Y16	Z16	X17	Y17	Z17	X18	Y18	Z18	X19	Y19	Z19	X20	Y20	Z20	X21	Y21	Z21	X22	Y22	Z22	X23	Y23	Z23	X24	Y24	Z24	X25	Y25	Z25	X26	Y26	Z26	X27	Y27	Z27	X28	Y28	Z28	X29	Y29	Z29	X30	Y30	Z30	X31	Y31	Z31	X32	Y32	Z32	X33	Y33	Z33	X34	Y34	Z34	X35	Y35	Z35	X36	Y36	Z36	X37	Y37	Z37	X38	Y38	Z38	X39	Y39	Z39	X40	Y40	Z40	X41	Y41	Z41	X42	Y42	Z42	X43	Y43	Z43	X44	Y44	Z44	X45	Y45	Z45	X46	Y46	Z46	X47	Y47	Z47	X48	Y48	Z48	X49	Y49	Z49	X50	Y50	Z50	X51	Y51	Z51	X52	Y52	Z52	X53	Y53	Z53	

1	0	335.1462097167969	1059.29833984375	995.8568725585938	314.1673583984375	1058.377685546875	1118.043701171875	324.2492065429688	1096.278442382812	1055.067138671875	71.16735076904297	1302.072631835938	1020.458984375	357.4198913574219	1255.424072265625	1072.490112304688	287.1999206542969	1523.471557617188	1081.224731445312	94.43538665771484	1415.524169921875	1035.92138671875	376.4981384277344	1351.47021484375	981.1461181640625	275.3197631835938	1496.110595703125	1179.646362304688	186.5796661376953	1479.78125	1240.704345703125	208.3531494140625	1347.426513671875	1316.852661132812	190.9779663085938	1133.630126953125	1337.669189453125	241.0433654785156	1112.415405273438	1268.282470703125	60.49734497070312	917.1061401367188	1319.268920898438	141.3702239990234	883.927490234375	1356.217041015625	169.676025390625	1026.068115234375	1354.810913085938	58.81610488891602	797.018310546875	1263.433959960938	115.2283401489258	815.2747192382812	1351.934814453125	43.06915664672852	834.2728881835938	1338.929443359375	259.8960876464844	1504.247802734375	890.2518920898438	291.9603576660156	1438.93310546875	823.3304443359375	304.6807556152344	1150.027099609375	766.3949584960938	287.7933044433594	1139.11328125	862.2176513671875	154.8908843994141	937.702880859375	728.010498046875	238.7867584228516	910.7877197265625	711.7638549804688	281.9305419921875	1080.9423828125	740.0166015625	113.7563934326172	789.80419921875	752.643310546875	119.352912902832	859.5850830078125	695.58251953125	198.2713623046875	833.4982299804688	695.2940673828125	252.7752990722656	1674.457397460938	1068.548095703125	52.08889389038086	1734.949462890625	1007.816833496094	161.0336303710938	1742.280395507812	936.5014038085938	142.4496765136719	1672.464965820312	1151.786865234375	193.8293151855469	996.638916015625	1215.717041015625	200.1849822998047	1019.934814453125	846.828369140625	111.8754653930664	1046.301635742188	888.5858764648438	73.93639373779297	1034.105346679688	1146.130004882812	193.8548889160156	500.4674072265625	1178.788696289062	181.8099975585938	643.3380737304688	1205.992553710938	288.9884643554688	45.95940780639648	1191.428100585938	237.4584808349609	279.7389831542969	1198.538696289062	67.52619171142578	43.76894760131836	1181.051635742188	115.0290679931641	42.80786895751953	1128.843994140625	184.0324096679688	39.94249725341797	1237.819091796875	335.5226135253906	40.74650192260742	1118.55615234375	204.5582885742188	518.8869018554688	867.3452758789062	155.7893829345703	788.1987915039062	829.51123046875	298.0827941894531	41.72174072265625	880.1642456054688	196.3390808105469	401.5233459472656	885.1195068359375	71.83165740966797	42.51461029052734	890.5879516601562	122.9960632324219	41.32853317260742	941.5092163085938	188.7718811035156	41.66538619995117	834.0573120117188	343.3054809570312	38.9558219909668	951.9139404296875	
2	0.01	335.1006774902344	1059.297607421875	995.8473510742188	314.1259155273438	1058.372314453125	1118.024047851562	324.1874389648438	1096.272827148438	1055.059326171875	71.14756774902344	1302.05517578125	1020.450988769531	357.386474609375	1255.4189453125	1072.47216796875	287.1614990234375	1523.467895507812	1081.199462890625	94.39668273925781	1415.51416015625	1035.904663085938	376.4518127441406	1351.461181640625	981.13330078125	275.2973022460938	1496.104736328125	1179.62353515625	186.5551147460938	1479.777221679688	1240.688720703125	208.3389892578125	1347.422485351562	1316.836303710938	190.9897003173828	1133.62158203125	1337.630981445312	241.0738830566406	1112.420532226562	1268.250122070312	60.64562225341797	917.019287109375	1319.183715820312	141.4988861083984	883.9011840820312	1356.185302734375	169.7118225097656	1026.0576171875	1354.779052734375	58.85417938232422	796.7968139648438	1263.435302734375	115.4364318847656	815.2212524414062	1351.867065429688	43.25556182861328	834.1809692382812	1338.821044921875	259.8580322265625	1504.237915039062	890.2225952148438	291.9205627441406	1438.919921875	823.3104858398438	304.6723327636719	1149.98486328125	766.4576416015625	287.7922973632812	1139.107055664062	862.2831420898438	154.9369964599609	937.6390380859375	728.1658935546875	238.8514251708984	910.7588500976562	711.9075927734375	281.9264526367188	1080.8984375	740.0855712890625	114.1954498291016	789.0781860351562	752.3381958007812	119.3379669189453	859.5744018554688	695.6900634765625	198.334716796875	833.52685546875	695.31396484375	252.7129516601562	1674.46435546875	1068.527587890625	52.03289413452148	1734.926635742188	1007.812316894531	160.9596099853516	1742.2783203125	936.5009155273438	142.3978118896484	1672.459716796875	1151.781127929688	193.7691345214844	996.6357421875	1215.709716796875	200.0412292480469	1019.915771484375	846.816650390625	111.8320541381836	1046.30078125	888.5850830078125	73.91318511962891	1034.084594726562	1146.12548828125	193.8219604492188	500.4607238769531	1178.785766601562	181.7399749755859	643.3251342773438	1205.984741210938	289.0105285644531	45.96529769897461	1191.4365234375	237.4465484619141	279.7386779785156	1198.545166015625	67.52581787109375	43.76563262939453	1181.0517578125	115.0256195068359	42.8079948425293	1128.840942382812	184.0358428955078	39.94424819946289	1237.820190429688	335.5237121582031	40.74472427368164	1118.553344726562	204.5105743408203	518.885009765625	867.3483276367188	155.7171630859375	788.18994140625	829.5147705078125	298.0816955566406	41.72233200073242	880.1629638671875	196.2896881103516	401.5098571777344	885.1270751953125	71.82906341552734	42.50726699829102	890.5938110351562	122.992073059082	41.32566833496094	941.5133666992188	188.7756652832031	41.66634750366211	834.0617065429688	343.3030090332031	38.95492553710938	951.9156494140625	
3	0.02	335.0446472167969	1059.294067382812	995.8343505859375	314.07275390625	1058.363037109375	1118.002807617188	324.107666015625	1096.2646484375	1055.050170898438	71.1192626953125	1302.0341796875	1020.441223144531	357.3433227539062	1255.410400390625	1072.450927734375	287.1131896972656	1523.463134765625	1081.169067382812	94.35019683837891	1415.50146484375	1035.885864257812	376.3953247070312	1351.44970703125	981.1190185546875	275.2694702148438	1496.096435546875	1179.595581054688	186.5241546630859	1479.771118164062	1240.671752929688	208.3221435546875	1347.415283203125	1316.81494140625	191.0069274902344	1133.610229492188	1337.581298828125	241.111572265625	1112.425170898438	1268.205810546875	60.83567047119141	916.9052734375	1319.07421875	141.6648559570312	883.867919921875	1356.140625	169.7602386474609	1026.0419921875	1354.735595703125	58.90742874145508	796.4752807617188	1263.4384765625	115.6949081420898	815.154296875	1351.789306640625	43.49978256225586	834.0676879882812	1338.690307617188	259.8121643066406	1504.2236328125	890.1881713867188	291.873779296875	1438.901245117188	823.2886352539062	304.661865234375	1149.931274414062	766.537109375	287.7947387695312	1139.098388671875	862.3671264648438	154.9879760742188	937.5533447265625	728.3720092773438	238.9210205078125	910.7200927734375	712.0891723632812	281.9234619140625	1080.843505859375	740.1718139648438	114.6184158325195	788.296630859375	751.9990844726562	119.3100814819336	859.5632934570312	695.8306274414062	198.40380859375	833.5595092773438	695.3450927734375	252.6384582519531	1674.471923828125	1068.500122070312	51.962646484375	1734.898803710938	1007.807434082031	160.8684692382812	1742.2744140625	936.4989624023438	142.3363037109375	1672.452880859375	1151.774047851562	193.6990356445312	996.6312866210938	1215.701171875	199.8570709228516	1019.891784667969	846.8005981445312	111.7725601196289	1046.29833984375	888.5819091796875	73.87823486328125	1034.061889648438	1146.121948242188	193.7776184082031	500.4514465332031	1178.782470703125	181.6574096679688	643.310791015625	1205.97509765625	289.0091247558594	45.96896362304688	1191.438110351562	237.4294281005859	279.7372131347656	1198.5517578125	67.52614593505859	43.76191329956055	1181.052612304688	115.0223388671875	42.80853271484375	1128.838134765625	184.0390777587891	39.94616317749023	1237.8212890625	335.5246276855469	40.74248123168945	1118.550048828125	204.4484405517578	518.8831176757812	867.3508911132812	155.6287536621094	788.1785888671875	829.5184326171875	298.0801391601562	41.72356796264648	880.1616821289062	196.2291870117188	401.4917297363281	885.135009765625	71.82475280761719	42.49863433837891	890.5991821289062	122.9874114990234	41.32203674316406	941.5180053710938	188.7801818847656	41.66773986816406	834.0672607421875	343.2994079589844	38.9537239074707	951.9181518554688	
4	0.03	334.9806213378906	1059.286865234375	995.8176879882812	314.0094299316406	1058.349487304688	1117.9814453125	324.0118103027344	1096.25341796875	1055.039916992188	71.08268737792969	1302.011108398438	1020.430358886719	357.2919921875	1255.398193359375	1072.428466796875	287.0567932128906	1523.45751953125	1081.135986328125	94.29822540283203	1415.486450195312	1035.866943359375	376.3317565917969	1351.436401367188	981.1046752929688	275.2372131347656	1496.0859375	1179.564208984375	186.48779296875	1479.762451171875	1240.655029296875	208.3036804199219	1347.404174804688	1316.78955078125	191.0302429199219	1133.595703125	1337.521484375	241.1542358398438	1112.428588867188	1268.149047851562	61.0604362487793	916.7661743164062	1318.943481445312	141.8636779785156	883.8287353515625	1356.08203125	169.8216400146484	1026.02001953125	1354.680419921875	58.96848678588867	796.043212890625	1263.447631835938	115.9913177490234	815.0772705078125	1351.708618164062	43.7940673828125	833.9384155273438	1338.544921875	259.7611389160156	1504.204833984375	890.151123046875	291.8234558105469	1438.877197265625	823.2672729492188	304.6495666503906	1149.868774414062	766.6304321289062	287.8011779785156	1139.0869140625	862.4664306640625	155.0373992919922	937.447021484375	728.6260986328125	238.9873352050781	910.6718139648438	712.3013305664062	281.9220886230469	1080.779907226562	740.2719116210938	114.9610061645508	787.5169677734375	751.6408081054688	119.2675628662109	859.553466796875	695.9996337890625	198.4709167480469	833.5933837890625	695.39013671875	252.5567169189453	1674.478881835938	1068.466430664062	51.88122940063477	1734.8671875	1007.802795410156	160.7650299072266	1742.268188476562	936.4946899414062	142.2690734863281	1672.444213867188	1151.765502929688	193.6228790283203	996.6256713867188	1215.692138671875	199.6446228027344	1019.865234375	846.7806396484375	111.6993942260742	1046.294311523438	888.5764770507812	73.83139801025391	1034.03955078125	1146.119995117188	193.7224884033203	500.4393310546875	1178.779418945312	181.5680541992188	643.2963256835938	1205.963745117188	288.9834594726562	45.97022247314453	1191.432250976562	237.4073181152344	279.7342834472656	1198.557861328125	67.52732849121094	43.75827789306641	1181.054443359375	115.0193634033203	42.8094596862793	1128.835815429688	184.0417327880859	39.947998046875	1237.822265625	335.5250854492188	40.74015045166016	1118.546752929688	204.3742828369141	518.8815307617188	867.3521728515625	155.5280609130859	788.1650390625	829.521484375	298.0782470703125	41.72544097900391	880.1605834960938	196.1614685058594	401.4695434570312	885.1427001953125	71.81834411621094	42.48952102661133	890.6029052734375	122.9824905395508	41.31778717041016	941.5225219726562	188.7847747802734	41.66940689086914	834.0733642578125	343.2948608398438	38.95233154296875	951.9215087890625	
